<svg xmlns="http://www.w3.org/2000/svg" viewBox="0 0 48 48"><path fill="#0075f6" d="M31,12.16V6a1,1,0,0,0-1-1H27a3,3,0,0,1-3,3H16a3,3,0,0,1-3-3H10A1,1,0,0,0,9,6V42a1,1,0,0,0,1,1H30a1,1,0,0,0,1-1V35.83a11.71,11.71,0,0,1-3.4-1.12l-2.86,1.15A2.11,2.11,0,0,1,24,36a2,2,0,0,1-2-2.39l.68-3.42a12,12,0,0,1,8.28-18ZM26,39a1,1,0,0,1,0,2H14a1,1,0,0,1,0-2Z"/><path fill="#3f3f44" d="M35,12.18V6a5,5,0,0,0-5-5H10A5,5,0,0,0,5,6V42a5,5,0,0,0,5,5H30a5,5,0,0,0,5-5V35.84l-.25,0A12.87,12.87,0,0,1,33,36v6a3,3,0,0,1-3,3H10a3,3,0,0,1-3-3V6a3,3,0,0,1,3-3h4a1,1,0,0,1,1,1V5a1,1,0,0,0,1,1h8a1,1,0,0,0,1-1V4a1,1,0,0,1,1-1h4a3,3,0,0,1,3,3v6A11.19,11.19,0,0,1,35,12.18Z"/><path fill="#0075f6" d="M31.33,14.14a10,10,0,0,0-6.72,15.3,1,1,0,0,1,.15.74L24,34l3.29-1.32a1,1,0,0,1,.87.07,10,10,0,1,0,3.17-18.61ZM28,25a1,1,0,1,1,1-1A1,1,0,0,1,28,25Zm5,0a1,1,0,1,1,1-1A1,1,0,0,1,33,25Zm5,0a1,1,0,1,1,1-1A1,1,0,0,1,38,25Z"/></svg>